<?xml version="1.0" encoding="utf-8"?>
<!-- Generator: Adobe Illustrator 21.1.0, SVG Export Plug-In . SVG Version: 6.00 Build 0)  -->
<svg version="1.1" id="Layer_1" xmlns="http://www.w3.org/2000/svg" xmlns:xlink="http://www.w3.org/1999/xlink" x="0px" y="0px" width="190.3px" height="44.2px"
	 viewBox="0 0 190.3 44.2" style="enable-background:new 0 0 190.3 44.2;" xml:space="preserve">
<style type="text/css">
	.st0{fill:#E6E6E6;}
	.st1{fill:#D4625E;}
</style>
<g>
	<path class="st0" d="M28.6,24.6c-0.5,0.2-1,0.5-1.5,0.9c-0.5,0.4-1,0.8-1.5,1.2c-0.5,0.4-1,0.9-1.5,1.4c-0.5,0.5-1.1,0.9-1.7,1.4
		c-0.6,0.4-1.3,0.8-2,1.2c-0.7,0.4-1.5,0.7-2.4,1c-0.9,0.3-1.8,0.5-2.9,0.7s-2.2,0.3-3.5,0.3c-1.4,0-2.7-0.3-3.8-0.8
		c-1.1-0.6-2.1-1.3-2.9-2.3c-0.8-1-1.4-2.1-1.9-3.3c-0.4-1.3-0.6-2.6-0.6-4c0-1,0.1-2,0.3-3.1C3,18,3.3,16.9,3.7,15.8
		c0.4-1.1,0.9-2.3,1.4-3.4c0.6-1.1,1.2-2.2,1.9-3.3c0.7-1,1.5-2,2.4-2.9c0.9-0.9,1.8-1.7,2.7-2.3s2-1.2,3.1-1.6
		c1.1-0.4,2.2-0.6,3.3-0.6c0.8,0,1.5,0.1,2.3,0.4c0.8,0.3,1.5,0.7,2.1,1.2c0.6,0.6,1.1,1.3,1.5,2.1s0.6,1.8,0.6,3
		c0,0.8-0.1,1.5-0.4,2.3c-0.2,0.8-0.6,1.5-1,2.3c-0.4,0.7-0.9,1.4-1.5,2c-0.6,0.6-1.2,1.2-1.9,1.6c-0.7,0.5-1.4,0.8-2.1,1.1
		c-0.7,0.3-1.4,0.4-2.2,0.4c-0.9,0-1.7-0.1-2.1-0.4c-0.5-0.3-0.7-0.6-0.7-1.1c0-0.1,0-0.2,0-0.3c0-0.1,0-0.2,0-0.4
		c0-0.2,0-0.4,0-0.6c0-0.2,0.1-0.4,0.1-0.6c0.1-0.2,0.2-0.3,0.3-0.4c0.1-0.1,0.3-0.2,0.5-0.2c0.1,0,0.2,0,0.3,0.1
		c0.1,0,0.2,0.1,0.3,0.1c0.1,0,0.3,0.1,0.4,0.1c0.2,0,0.4,0.1,0.6,0.1c0.7,0,1.3-0.1,2-0.4c0.7-0.3,1.3-0.7,1.8-1.2s1-1.2,1.3-1.9
		c0.3-0.7,0.5-1.5,0.5-2.4c0-0.5-0.1-0.9-0.2-1.3S21,6.5,20.7,6.2c-0.3-0.3-0.6-0.6-1.1-0.8c-0.4-0.2-1-0.3-1.6-0.3
		c-0.8,0-1.5,0.2-2.2,0.5C15.1,6,14.4,6.4,13.8,7s-1.3,1.2-1.9,2c-0.6,0.8-1.1,1.6-1.6,2.5s-1,1.8-1.4,2.8c-0.4,1-0.7,1.9-1,2.9
		S7.4,19,7.2,19.9C7.1,20.8,7,21.6,7,22.4c0,1.1,0.1,2.1,0.4,2.9s0.6,1.5,1.1,2.1c0.5,0.6,1.1,1,1.8,1.2c0.7,0.3,1.5,0.4,2.4,0.4
		c1.1,0,2.1-0.1,3.1-0.4s1.9-0.7,2.7-1.1c0.9-0.5,1.7-1,2.5-1.6c0.8-0.6,1.6-1.2,2.4-1.8c0.8-0.6,1.6-1.1,2.5-1.7
		c0.8-0.5,1.7-1,2.7-1.4V24.6z"/>
	<path class="st0" d="M30,29.6c-0.6,0-1.1-0.2-1.6-0.7c-0.5-0.5-0.9-1.1-1.3-2s-0.6-1.8-0.8-2.9c-0.2-1.1-0.3-2.2-0.3-3.4
		c0-1,0.2-2.4,0.5-4.1S27,14,27,14c0,0,0.2-0.9,0.7-2.6s0.9-3.1,1.4-4.1c0.5-1,1-2,1.5-2.9c0.5-0.9,1.1-1.7,1.7-2.3
		c0.6-0.7,1.2-1.2,1.8-1.6C34.7,0.2,35.4,0,36,0c0.5,0,0.9,0.1,1.2,0.3c0.3,0.2,0.6,0.4,0.7,0.7s0.3,0.6,0.4,1
		c0.1,0.4,0.1,0.8,0.1,1.2c0,1-0.1,2-0.3,3c-0.2,1-0.5,2-0.9,3.1c-0.4,1-0.9,2.1-1.4,3.1c-0.5,1-1.1,2.1-1.6,3.1c-0.6,1-1.1,2-1.7,3
		c-0.6,1-1.1,2-1.6,2.9c-0.1,0.1-0.1,0.2-0.2,0.4c-0.1,0.2-0.1,0.3-0.2,0.5s-0.1,0.4-0.2,0.6s-0.1,0.4-0.1,0.6v0.2
		c0,0.3,0,0.5,0.1,0.8c0.1,0.3,0.1,0.5,0.2,0.7c0.1,0.2,0.2,0.4,0.3,0.5c0.1,0.1,0.2,0.2,0.3,0.2c0.2,0,0.4,0,0.7-0.1
		c0.3-0.1,0.5-0.2,0.8-0.3c0.3-0.1,0.6-0.3,0.9-0.5c0.3-0.2,0.6-0.4,0.9-0.6c0.7-0.4,1.4-1,2.1-1.5l1.4,3.3c-1,0.6-1.9,1.2-2.8,1.7
		c-0.4,0.2-0.8,0.4-1.3,0.6c-0.4,0.2-0.9,0.4-1.3,0.5s-0.9,0.3-1.3,0.4S30.4,29.6,30,29.6z M30.1,17.2c0.5-0.8,1-1.8,1.5-2.8
		c0.5-1.1,1-2.1,1.5-3.2c0.5-1.1,0.9-2.2,1.2-3.3s0.6-2.1,0.7-3.1c0-0.3,0-0.6,0-0.8c0-0.2-0.1-0.3-0.1-0.3c-0.3,0-0.6,0.2-0.9,0.6
		s-0.7,0.9-1,1.6c-0.3,0.7-0.7,1.8-1.2,3.3c-0.5,1.5-0.7,2.3-0.7,2.3c0,0-0.1,0.7-0.4,2.1S30.1,16.2,30.1,17.2z"/>
	<path class="st0" d="M44.5,26.3c-0.4,0.3-0.8,0.7-1.4,1.1c-0.6,0.4-1.2,0.8-1.8,1.1c-0.6,0.3-1.3,0.6-2,0.8s-1.3,0.3-1.9,0.3
		c-0.5,0-1-0.1-1.4-0.2c-0.4-0.2-0.7-0.4-0.9-0.6c-0.2-0.3-0.4-0.6-0.5-1c-0.1-0.4-0.1-0.8-0.1-1.3c0-0.7,0.1-1.4,0.2-2.3
		c0.3-1.8,0.5-2.8,0.6-3c0.1-0.4,0.4-1.4,0.9-3c0.4-1.2,0.6-2.1,0.7-2.4c0.1-0.3,0.2-0.5,0.4-0.7c0.2-0.2,0.5-0.3,0.7-0.5
		s0.6-0.2,0.8-0.3c0.3-0.1,0.6-0.1,0.8-0.1c0.4,0,0.7,0.1,0.9,0.2c0.2,0.2,0.2,0.4,0.2,0.6c0,0.2-0.1,0.6-0.2,1
		c-0.1,0.4-0.2,0.9-0.4,1.4s-0.3,1.2-0.6,2.1c-0.3,0.8-0.5,1.6-0.6,2.2c-0.1,0.6-0.2,1.2-0.4,1.8c-0.1,0.6-0.2,1.1-0.2,1.6
		c0,0.5,0.1,0.8,0.2,1.1c0.1,0.3,0.3,0.4,0.6,0.4c0.4,0,0.8-0.1,1.3-0.4c0.5-0.3,0.9-0.6,1.4-0.9c0.5-0.4,0.9-0.8,1.4-1.1
		c0.4-0.4,0.8-0.7,1.2-1V26.3z M37.5,9.9c0-0.2,0.1-0.5,0.2-0.8c0.1-0.3,0.3-0.6,0.5-0.9c0.2-0.3,0.5-0.5,0.9-0.7
		c0.4-0.2,0.9-0.3,1.5-0.3c0.4,0,0.7,0,1,0.1c0.3,0.1,0.6,0.2,0.8,0.4C42.7,8,42.9,8.2,43,8.5s0.2,0.6,0.2,1c0,0.4-0.1,0.7-0.2,1
		c-0.1,0.3-0.3,0.6-0.5,0.9c-0.3,0.3-0.6,0.5-0.9,0.6c-0.4,0.2-0.8,0.2-1.4,0.2c-0.9,0-1.6-0.2-2-0.7S37.5,10.6,37.5,9.9z"/>
	<path class="st0" d="M43.4,26.4c0-0.7,0-1.5,0.1-2.4c0.1-0.9,0.2-1.9,0.3-3s0.3-2,0.4-2.9c0.2-0.9,0.3-1.6,0.5-2.2
		c0.1-0.5,0.3-0.9,0.7-1.2c0.3-0.3,0.8-0.5,1.3-0.5s1,0.2,1.2,0.5s0.3,0.8,0.3,1.4c0,0.2,0,0.4,0,0.6s-0.1,0.6-0.1,0.9
		c0,0.3-0.1,0.6-0.1,1c-0.1,0.3-0.1,0.7-0.1,1.2c0,0.4-0.1,0.8-0.1,1c0,0.2,0,0.4,0,0.4h0.3c0.1-0.1,0.2-0.3,0.3-0.6
		c0.1-0.3,0.3-0.6,0.5-1.1c0.2-0.5,0.4-0.9,0.6-1.3c0.2-0.4,0.4-0.7,0.6-1.1c0.2-0.3,0.3-0.6,0.5-0.9c0.1-0.3,0.3-0.5,0.3-0.6
		c0.3-0.6,0.7-0.9,1.1-1.2c0.4-0.2,0.9-0.3,1.4-0.3c0.5,0,0.9,0.2,1.2,0.7c0.3,0.4,0.5,1,0.5,1.8c0,0.1,0,0.3-0.1,0.6
		c0,0.3-0.1,0.6-0.2,1c-0.1,0.4-0.2,0.9-0.2,1.5c-0.1,0.6-0.2,1.1-0.2,1.6c-0.1,0.5-0.1,0.9-0.2,1.4c0,0.5-0.1,0.9-0.1,1.3
		c0,0.6,0.1,1.2,0.2,1.6c0.2,0.4,0.4,0.6,0.8,0.6c0.1,0,0.3,0,0.5-0.1c0.3-0.1,0.6-0.2,0.7-0.3c0.5-0.4,0.7-0.5,0.7-0.5
		c0,0,0.4-0.2,1-0.6c0.8-0.5,1.8-1.2,3-2l0,3.5L60,26.7c-0.1,0.1-0.6,0.3-1.5,0.8c-1.3,0.7-2.2,1.1-2.5,1.3
		c-0.8,0.4-1.3,0.6-1.5,0.6c-0.5,0.2-1.1,0.3-1.6,0.3c-0.6,0-1.1-0.4-1.4-1.2s-0.6-2-0.6-3.6c0-0.6,0-1.3,0.1-2
		c0.1-0.7,0.2-1.5,0.3-2.3h-0.3L47,28.5c-0.2,0.4-0.5,0.7-0.7,0.9c-0.3,0.2-0.6,0.2-0.9,0.2c-0.4,0-0.8-0.1-1-0.3
		c-0.3-0.2-0.5-0.4-0.6-0.7c-0.1-0.3-0.2-0.7-0.3-1S43.4,26.8,43.4,26.4z"/>
	<path class="st0" d="M71.5,26.1c-1,0.6-1.9,1.1-2.7,1.5s-1.5,0.8-2.1,1.1c-0.6,0.3-1.2,0.5-1.6,0.7c-0.5,0.1-0.9,0.2-1.3,0.2
		c-0.8,0-1.5-0.2-2.1-0.7c-0.6-0.5-1.1-1.2-1.5-2.1c-0.4-0.9-0.7-2-0.9-3.3S59,20.8,59,19.2c0-0.6,0-1.3,0.1-2
		c0.1-0.7,0.1-1.4,0.2-2.1c-0.3,0-0.6-0.1-0.7-0.1s-0.4-0.1-0.6-0.1c-0.2,0-0.4-0.1-0.7-0.1c-0.3,0-0.7-0.1-1.3-0.2
		c-0.3,0-0.4-0.1-0.6-0.2s-0.2-0.2-0.3-0.3c-0.1-0.1-0.1-0.3-0.1-0.4c0-0.1,0-0.3,0-0.4c0-0.2,0.1-0.3,0.3-0.4
		c0.2-0.1,0.5-0.2,0.8-0.2s0.7-0.1,1.1-0.1c0.4,0,0.7,0,1.1,0c0.4,0,0.7,0,0.9,0c0.3,0,0.5,0,0.6,0c0.3-1.4,0.6-2.8,1.1-4.1
		S61.8,6,62.3,5c0.5-1,1.1-1.8,1.8-2.5s1.3-0.9,2-0.9c0.4,0,0.9,0.1,1.2,0.4c0.4,0.2,0.7,0.6,0.9,1c0.3,0.4,0.5,0.9,0.6,1.5
		C69,5,69,5.6,69,6.2c0,0.5-0.1,1-0.2,1.6c-0.1,0.6-0.3,1.1-0.6,1.7s-0.5,1.2-0.9,1.8c-0.3,0.6-0.7,1.2-1.1,1.8c0.1,0,0.3,0,0.5,0
		c0.2,0,0.5,0,0.8,0c0.3,0,0.6,0,0.9,0c0.3,0,0.7,0,1,0c0.3,0,0.6,0,0.9,0c0.3,0,0.5,0,0.7,0c0.2,0,0.4,0.1,0.5,0.3
		c0.1,0.2,0.1,0.5,0.1,0.8c0,0.4-0.1,0.7-0.3,1s-0.4,0.4-0.7,0.4h-6c-0.3,0.4-0.6,0.8-0.9,1.2c-0.3,0.4-0.6,0.8-0.9,1.1
		c0,0.6-0.1,1.3-0.1,1.9c0,0.3,0,0.5,0,0.8c0,0.3,0,0.6,0,0.9c0,0.3,0,0.6,0,0.8c0,0.3,0,0.5,0,0.7c0,0.6,0.1,1,0.2,1.4
		c0.1,0.4,0.3,0.7,0.5,0.9c0.2,0.2,0.4,0.4,0.7,0.5c0.3,0.1,0.6,0.2,1,0.2c0.2,0,0.5-0.1,0.8-0.2c0.3-0.1,0.7-0.2,1.1-0.4
		c0.4-0.2,0.8-0.4,1.2-0.6s0.9-0.5,1.3-0.8s0.8-0.6,1.2-0.9s0.7-0.7,1-1V26.1z M66.5,6.3c0-0.1,0-0.2,0-0.4s0-0.3-0.1-0.4
		c-0.1-0.1-0.1-0.2-0.2-0.3s-0.3-0.1-0.5-0.1c-0.3,0-0.5,0.2-0.8,0.7c-0.3,0.5-0.5,1.1-0.8,1.8s-0.5,1.6-0.7,2.4s-0.4,1.8-0.6,2.6
		c0.2,0,0.3,0,0.5,0s0.3,0,0.5,0c0.3-0.5,0.6-1.1,1-1.7s0.6-1.2,0.9-1.8s0.5-1.1,0.7-1.7S66.5,6.7,66.5,6.3z"/>
	<path class="st0" d="M79.9,17.6c0.3,0.6,0.5,1.2,0.7,1.9c0.2,0.7,0.2,1.4,0.2,2.3c0,0.6-0.1,1.2-0.2,1.9c-0.1,0.6-0.3,1.2-0.6,1.8
		c-0.3,0.6-0.6,1.1-0.9,1.6c-0.4,0.5-0.8,1-1.3,1.3c-0.5,0.4-1,0.7-1.6,0.9s-1.2,0.3-1.8,0.3c-0.9,0-1.7-0.2-2.4-0.6
		c-0.7-0.4-1.2-0.9-1.6-1.6c-0.4-0.6-0.7-1.4-0.9-2.2c-0.2-0.8-0.3-1.6-0.3-2.5c0-1.4,0.2-2.6,0.5-3.6c0.3-1,0.8-1.9,1.5-2.6
		s1.4-1.3,2.4-1.7c0.9-0.4,2-0.6,3.1-0.6c1,0,1.9,0.2,2.8,0.5c0.9,0.3,1.7,0.7,2.4,1.2c0.8,0.5,1.5,1.2,2.1,1.9
		c0.7,0.8,1.3,1.5,1.8,2.2l-0.3,2.2c-0.3-0.4-0.7-0.8-1.1-1.2c-0.5-0.4-1-0.9-1.5-1.5c-0.5-0.5-1.1-1-1.6-1.4
		c-0.5-0.4-1-0.7-1.3-0.9L79.9,17.6z M75.1,26.6c0.4,0,0.7-0.2,1-0.5c0.3-0.4,0.6-0.8,0.9-1.4s0.5-1.2,0.6-2
		c0.2-0.8,0.2-1.5,0.2-2.1c0-0.5,0-0.9-0.1-1.3c-0.1-0.4-0.2-0.8-0.3-1.1c-0.1-0.3-0.3-0.5-0.6-0.7c-0.2-0.2-0.5-0.3-0.8-0.3
		c-0.4,0-0.8,0.2-1.2,0.5c-0.4,0.4-0.7,0.8-1,1.4c-0.3,0.6-0.5,1.2-0.7,1.9c-0.2,0.7-0.3,1.5-0.3,2.3c0,0.4,0,0.8,0.1,1.2
		c0.1,0.4,0.2,0.7,0.4,1c0.2,0.3,0.4,0.5,0.7,0.7C74.3,26.5,74.7,26.6,75.1,26.6z"/>
	<path class="st0" d="M83.8,26.4c0-0.7,0-1.5,0.1-2.4c0.1-0.9,0.2-1.9,0.3-3s0.3-2,0.4-2.9c0.2-0.9,0.3-1.6,0.5-2.2
		c0.1-0.5,0.3-0.9,0.7-1.2c0.3-0.3,0.8-0.5,1.3-0.5s1,0.2,1.2,0.5s0.3,0.8,0.3,1.4c0,0.2,0,0.4,0,0.6s-0.1,0.6-0.1,0.9
		c0,0.3-0.1,0.6-0.1,1c-0.1,0.3-0.1,0.7-0.1,1.2c0,0.4-0.1,0.8-0.1,1c0,0.2,0,0.4,0,0.4h0.3c0.1-0.1,0.2-0.3,0.3-0.6
		c0.1-0.3,0.3-0.6,0.5-1.1c0.2-0.5,0.4-0.9,0.6-1.3c0.2-0.4,0.4-0.7,0.6-1.1c0.2-0.3,0.3-0.6,0.5-0.9c0.1-0.3,0.3-0.5,0.3-0.6
		c0.3-0.6,0.7-0.9,1.1-1.2c0.4-0.2,0.9-0.3,1.4-0.3c0.5,0,0.9,0.2,1.2,0.7c0.3,0.4,0.5,1,0.5,1.8c0,0.1,0,0.3-0.1,0.6
		c0,0.3-0.1,0.6-0.2,1c-0.1,0.4-0.2,0.9-0.2,1.5c-0.1,0.6-0.2,1.1-0.2,1.6c-0.1,0.5-0.1,0.9-0.2,1.4c0,0.5-0.1,0.9-0.1,1.3
		c0,0.6,0.1,1.2,0.2,1.6c0.2,0.4,0.4,0.6,0.8,0.6c0.1,0,0.3,0,0.5-0.1c0.3-0.1,0.6-0.2,0.7-0.3c0.5-0.4,0.7-0.5,0.7-0.5
		c0,0,0.4-0.2,1-0.6c0.8-0.5,1.8-1.2,3-2l0,3.5l-0.8,0.6c-0.1,0.1-0.6,0.3-1.5,0.8c-1.3,0.7-2.2,1.1-2.5,1.3
		c-0.8,0.4-1.3,0.6-1.5,0.6c-0.5,0.2-1.1,0.3-1.6,0.3c-0.6,0-1.1-0.4-1.4-1.2s-0.6-2-0.6-3.6c0-0.6,0-1.3,0.1-2
		c0.1-0.7,0.2-1.5,0.3-2.3h-0.3l-4.1,8.1c-0.2,0.4-0.5,0.7-0.7,0.9c-0.3,0.2-0.6,0.2-0.9,0.2c-0.4,0-0.8-0.1-1-0.3
		c-0.3-0.2-0.5-0.4-0.6-0.7c-0.1-0.3-0.2-0.7-0.3-1S83.8,26.8,83.8,26.4z"/>
	<path class="st0" d="M117.1,32.6c-1.6,0-3-0.3-4.2-0.9c-1.2-0.6-2.3-1.5-3.2-2.6c-0.9-1.1-1.5-2.5-2-4s-0.7-3.3-0.7-5.1
		c0-1,0.1-2,0.2-3.1c0.1-1.1,0.4-2.1,0.7-3.2s0.7-2.1,1.1-3.1c0.4-1,1-2,1.5-2.9c0.6-0.9,1.2-1.7,2-2.5c0.7-0.8,1.5-1.4,2.4-2
		c0.9-0.5,1.8-1,2.8-1.3c1-0.3,2.1-0.5,3.3-0.5c1.6,0,3,0.3,4.2,0.8s2.3,1.4,3.1,2.4c0.8,1,1.5,2.2,2,3.6c0.5,1.4,0.7,3,0.7,4.7
		c0,1.4-0.1,2.8-0.4,4.4c-0.3,1.5-0.7,3-1.2,4.5s-1.2,2.8-2,4.2c-0.8,1.3-1.7,2.5-2.7,3.5s-2.2,1.8-3.4,2.4
		C119.9,32.3,118.5,32.6,117.1,32.6z M117.4,29c0.8,0,1.6-0.2,2.3-0.5c0.7-0.3,1.4-0.8,2-1.3c0.6-0.6,1.1-1.2,1.6-2
		c0.5-0.8,0.9-1.6,1.3-2.4c0.4-0.9,0.7-1.8,1-2.7c0.3-0.9,0.5-1.9,0.7-2.8s0.3-1.8,0.4-2.6c0.1-0.8,0.1-1.6,0.1-2.3
		c0-1-0.1-2-0.3-2.8s-0.5-1.7-1-2.3c-0.4-0.7-1-1.2-1.7-1.6S122.5,5,121.6,5c-1,0-1.9,0.2-2.8,0.7c-0.9,0.5-1.7,1.1-2.5,1.9
		c-0.8,0.8-1.5,1.7-2.2,2.8s-1.2,2.1-1.7,3.3s-0.8,2.3-1.1,3.5c-0.3,1.2-0.4,2.3-0.4,3.4c0,1.2,0.1,2.3,0.4,3.3
		c0.3,1,0.7,1.9,1.3,2.7c0.6,0.7,1.2,1.3,2,1.8S116.4,29,117.4,29z"/>
	<path class="st0" d="M139.4,21.9c-0.3,1.1-0.7,2.2-1.1,3.1c-0.4,0.9-0.8,1.8-1.3,2.4c-0.5,0.7-0.9,1.2-1.4,1.6
		c-0.5,0.4-1,0.6-1.5,0.6c-0.8,0-1.4-0.6-1.7-1.8c-0.4-1.2-0.6-3-0.6-5.3c0-1.2,0-2.2,0-3.1c0-0.9,0-1.8,0-2.7c0-0.9,0-1.2,0-0.9
		s0,0.6,0,0.9c0,0.1,0,0.2,0,0.3c0,0.2,0,0.1,0.1-0.2c0.1-0.3,0.2-0.7,0.3-1s0.3-0.7,0.5-0.9s0.5-0.5,0.8-0.7s0.7-0.3,1.1-0.3l0.4,0
		c0.5,0,0.9,0.1,1.1,0.3s0.4,0.4,0.4,0.7l-1.3,9.1l0.2,0c0.5-1.1,0.9-2.1,1.3-3.2c0.4-1.1,0.7-2,1-2.7c0.3-0.7,0.6-1.3,0.8-1.8
		c0.3-0.5,0.6-1,0.9-1.3c0.3-0.3,0.7-0.6,1.1-0.8c0.4-0.2,0.9-0.3,1.4-0.3c0.5,0,0.8,0.1,1.1,0.3c0.2,0.2,0.4,0.4,0.4,0.7l-1.5,9.1
		l0.2,0l3.9-9c0.1-0.3,0.4-0.5,0.8-0.8c0.4-0.2,0.9-0.3,1.5-0.3c0.6,0,1.1,0.1,1.4,0.4c0.4,0.2,0.5,0.6,0.5,0.9c0,0.3,0,0.6-0.1,0.9
		c-0.1,0.3-0.2,0.6-0.3,0.9c-0.1,0.3-0.2,0.5-0.3,0.7c-0.1,0.2-0.2,0.3-0.2,0.3c-0.2,0.4-0.5,0.9-0.7,1.5c-0.2,0.6-0.4,1-0.6,1.3
		c-0.2,0.3-0.3,0.6-0.5,0.9c0.1,0.4,0.3,0.8,0.6,1.1c0.2,0.3,0.4,0.5,0.7,0.8c0.3,0.2,0.6,0.3,1,0.3c0.3,0,0.7-0.1,1.2-0.3
		c0.4-0.2,0.9-0.4,1.3-0.6c0.5-0.3,0.9-0.6,1.4-0.9V26c-0.7,0.5-1.4,0.8-2.1,1.1s-1.4,0.4-2.1,0.4c-0.5,0-1-0.1-1.5-0.2
		c-0.5-0.1-0.9-0.3-1.3-0.6c-0.4-0.3-0.6-0.7-0.9-1.1c-0.2-0.5-0.3-1-0.3-1.6c-0.4,0.8-0.7,1.6-1.1,2.3c-0.4,0.7-0.8,1.3-1.2,1.8
		s-0.8,0.9-1.2,1.2c-0.4,0.3-0.8,0.4-1.3,0.4c-0.1,0-0.3-0.1-0.4-0.3c-0.1-0.2-0.2-0.5-0.3-0.9c-0.1-0.4-0.1-0.8-0.2-1.3
		c0-0.5-0.1-1-0.1-1.6c0-0.6,0-1.1-0.1-1.7c0-0.6,0-1.2,0-1.7L139.4,21.9z"/>
	<path class="st0" d="M158.2,29.6c-1,0-1.8-0.2-2.6-0.5c-0.7-0.4-1.3-0.8-1.8-1.5c-0.5-0.6-0.9-1.3-1.1-2.1
		c-0.2-0.8-0.4-1.6-0.4-2.5c0-0.6,0.1-1.3,0.3-2.1s0.4-1.5,0.7-2.1c0.2-0.6,0.5-1.2,0.9-1.8c0.4-0.6,0.8-1.1,1.2-1.5
		c0.5-0.4,1-0.8,1.6-1s1.2-0.4,2-0.4c0.6,0,1.1,0.1,1.6,0.3c0.5,0.2,0.9,0.4,1.3,0.8c0.4,0.3,0.7,0.7,0.9,1.2s0.3,1,0.3,1.6
		c0,0.6-0.2,1.3-0.6,2.1s-0.9,1.5-1.5,2c-0.6,0.6-1.2,1.1-2,1.5c-0.8,0.4-1.6,0.8-2.5,1c0.2,0.3,0.3,0.5,0.5,0.7s0.3,0.3,0.5,0.4
		c0.2,0.1,0.3,0.2,0.5,0.2c0.2,0,0.4,0.1,0.6,0.1c0.6,0,1.3-0.1,2-0.4c0.7-0.2,1.4-0.6,2-0.9c0.7-0.4,1.3-0.8,1.9-1.2
		c0.6-0.4,1.1-0.8,1.5-1.2l2,2c-0.9,1-1.9,1.8-2.9,2.6c-0.4,0.3-0.9,0.6-1.4,0.9s-1.1,0.6-1.6,0.8c-0.6,0.2-1.2,0.4-1.8,0.6
		S158.8,29.6,158.2,29.6z M156.1,22.2c0.4,0,0.8-0.1,1.2-0.3s0.9-0.4,1.2-0.7c0.4-0.3,0.8-0.7,1.1-1.2c0.4-0.5,0.5-0.9,0.5-1.2
		c0-0.5-0.1-0.8-0.3-1.1c-0.2-0.3-0.4-0.4-0.6-0.4c-0.4,0-0.8,0.1-1.2,0.2s-0.6,0.4-0.8,0.6s-0.4,0.6-0.5,0.9s-0.3,0.7-0.5,1.2
		c-0.2,0.5-0.3,0.9-0.3,1.2C156.1,21.7,156.1,22,156.1,22.2z"/>
	<path class="st0" d="M164.7,26.4c0-0.7,0-1.5,0.1-2.4c0.1-0.9,0.2-1.9,0.3-3s0.3-2,0.4-2.9c0.2-0.9,0.3-1.6,0.5-2.2
		c0.1-0.5,0.3-0.9,0.7-1.2c0.3-0.3,0.8-0.5,1.3-0.5s1,0.2,1.2,0.5s0.3,0.8,0.3,1.4c0,0.2,0,0.4,0,0.6s-0.1,0.6-0.1,0.9
		c0,0.3-0.1,0.6-0.1,1c-0.1,0.3-0.1,0.7-0.1,1.2c0,0.4-0.1,0.8-0.1,1c0,0.2,0,0.4,0,0.4h0.3c0.1-0.1,0.2-0.3,0.3-0.6
		c0.1-0.3,0.3-0.6,0.5-1.1c0.2-0.5,0.4-0.9,0.6-1.3c0.2-0.4,0.4-0.7,0.6-1.1c0.2-0.3,0.3-0.6,0.5-0.9c0.1-0.3,0.3-0.5,0.3-0.6
		c0.3-0.6,0.7-0.9,1.1-1.2c0.4-0.2,0.9-0.3,1.4-0.3c0.5,0,0.9,0.2,1.2,0.7c0.3,0.4,0.5,1,0.5,1.8c0,0.1,0,0.3-0.1,0.6
		c0,0.3-0.1,0.6-0.2,1c-0.1,0.4-0.2,0.9-0.2,1.5c-0.1,0.6-0.2,1.1-0.2,1.6c-0.1,0.5-0.1,0.9-0.2,1.4c0,0.5-0.1,0.9-0.1,1.3
		c0,0.6,0.1,1.2,0.2,1.6c0.2,0.4,0.4,0.6,0.8,0.6c0.1,0,0.3,0,0.5-0.1c0.3-0.1,0.6-0.2,0.7-0.3c0.5-0.4,0.7-0.5,0.7-0.5
		c0,0,0.4-0.2,1-0.6c0.8-0.5,1.8-1.2,3-2l0,3.5l-0.8,0.6c-0.1,0.1-0.6,0.3-1.5,0.8c-1.3,0.7-2.2,1.1-2.5,1.3
		c-0.8,0.4-1.3,0.6-1.5,0.6c-0.5,0.2-1.1,0.3-1.6,0.3c-0.6,0-1.1-0.4-1.4-1.2s-0.6-2-0.6-3.6c0-0.6,0-1.3,0.1-2
		c0.1-0.7,0.2-1.5,0.3-2.3h-0.3l-4.1,8.1c-0.2,0.4-0.5,0.7-0.7,0.9c-0.3,0.2-0.6,0.2-0.9,0.2c-0.4,0-0.8-0.1-1-0.3
		c-0.3-0.2-0.5-0.4-0.6-0.7c-0.1-0.3-0.2-0.7-0.3-1S164.7,26.8,164.7,26.4z"/>
	<path class="st1" d="M188.4,26.9c0,0,0,0.1,0,0.3c0,0.2,0,0.3-0.1,0.5c-0.1,0.2-0.1,0.4-0.3,0.6c-0.1,0.2-0.3,0.4-0.5,0.6
		c-0.2,0.2-0.5,0.3-0.8,0.5c-0.3,0.1-0.7,0.2-1.2,0.2c-0.4,0-0.7,0-1-0.1s-0.6-0.2-0.8-0.4c-0.2-0.2-0.4-0.4-0.5-0.7s-0.2-0.6-0.2-1
		c0-0.3,0.1-0.7,0.2-1c0.1-0.3,0.3-0.6,0.5-0.9c0.2-0.3,0.5-0.5,0.9-0.6c0.4-0.2,0.8-0.2,1.3-0.2c0.9,0,1.5,0.2,2,0.6
		C188.1,25.6,188.4,26.2,188.4,26.9z"/>
</g>
<g>
</g>
<g>
</g>
<g>
</g>
<g>
</g>
<g>
</g>
<g>
</g>
<g>
</g>
<g>
</g>
<g>
</g>
<g>
</g>
<g>
</g>
<g>
</g>
<g>
</g>
<g>
</g>
<g>
</g>
</svg>
