<?xml version="1.0" encoding="utf-8"?>
<?xml-stylesheet href="/styles/svg.css" type="text/css"?>
<!-- Generator: Adobe Illustrator 21.1.0, SVG Export Plug-In . SVG Version: 6.00 Build 0)  -->
<svg version="1.1" id="Layer_1" xmlns="http://www.w3.org/2000/svg" xmlns:xlink="http://www.w3.org/1999/xlink" x="0px" y="0px"
	 viewBox="0 0 40 40" style="enable-background:new 0 0 40 40; fill:#E6E6E6" xml:space="preserve">
<style type="text/css">
	.st0{fill:#363B4E;}
</style>
<a class="light" xlink:href="https://github.com/clintonowen" target="_blank">
<rect class="st0" width="40" height="40"/>
<path d="M35.7,0H4.3C1.9,0,0,1.9,0,4.3v31.4C0,38.1,1.9,40,4.3,40h31.4c2.4,0,4.3-1.9,4.3-4.3V4.3C40,1.9,38.1,0,35.7,0z M24.8,34.3
	c-0.8,0.1-1-0.3-1-0.7c0-0.5,0-2.9,0-4.9c0-1.4-0.5-2.3-1-2.7c3.3-0.4,6.8-0.8,6.8-6.5c0-1.6-0.6-2.4-1.5-3.5c0.2-0.4,0.7-2-0.2-4
	c-1.2-0.4-4.1,1.6-4.1,1.6c-1.2-0.3-2.5-0.5-3.7-0.5c-1.3,0-2.5,0.2-3.7,0.5c0,0-2.8-2-4.1-1.6c-0.8,2-0.3,3.6-0.2,4
	c-0.9,1-1.4,1.9-1.4,3.5c0,5.7,3.3,6.2,6.6,6.5c-0.4,0.4-0.8,1-0.9,2c-0.8,0.4-3,1-4.3-1.2c-0.8-1.4-2.3-1.5-2.3-1.5
	c-1.4,0-0.1,0.9-0.1,0.9c1,0.4,1.6,2.2,1.6,2.2c0.9,2.7,5,1.8,5,1.8c0,1.2,0,3.3,0,3.6c0,0.4-0.3,0.8-1,0.7c-5.9-2-10-7.6-10-14.1
	c0-8.2,6.3-14.4,14.5-14.4s14.8,6.2,14.8,14.4C34.7,26.7,30.7,32.3,24.8,34.3z M16,28.8c-0.2,0-0.3,0-0.3-0.2c0-0.1,0.1-0.2,0.3-0.3
	c0.2,0,0.3,0.1,0.3,0.2C16.3,28.7,16.2,28.8,16,28.8L16,28.8z M15.2,28.7c0,0.1-0.1,0.2-0.3,0.2c-0.2,0-0.3-0.1-0.3-0.2
	c0-0.1,0.1-0.2,0.3-0.2C15,28.5,15.2,28.6,15.2,28.7z M13.9,28.6c0,0.1-0.2,0.2-0.4,0.1c-0.2,0-0.3-0.2-0.3-0.3
	c0-0.1,0.2-0.2,0.4-0.1C13.9,28.4,14,28.5,13.9,28.6L13.9,28.6z M12.8,28.1c-0.1,0.1-0.3,0.1-0.4-0.1c-0.1-0.1-0.2-0.3-0.1-0.4
	c0.1-0.1,0.3-0.1,0.4,0.1C12.9,27.9,12.9,28.1,12.8,28.1z M12,27.3c-0.1,0.1-0.2,0-0.3-0.1c-0.1-0.1-0.1-0.3,0-0.3
	c0.1-0.1,0.3,0,0.3,0.1C12.1,27.1,12.1,27.3,12,27.3z M11.4,26.5c-0.1,0.1-0.2,0-0.3-0.1c-0.1-0.1-0.1-0.2,0-0.3
	c0.1-0.1,0.2,0,0.3,0.1C11.5,26.3,11.5,26.4,11.4,26.5z M10.8,25.8c0,0.1-0.2,0.1-0.3,0c-0.1-0.1-0.2-0.2-0.1-0.2
	c0-0.1,0.1-0.1,0.3,0C10.8,25.6,10.9,25.7,10.8,25.8z"/>
</a>
</svg>
