<?xml version="1.0" encoding="utf-8"?>
<?xml-stylesheet href="../styles/svg.css" type="text/css"?>
<!-- Generator: Adobe Illustrator 21.1.0, SVG Export Plug-In . SVG Version: 6.00 Build 0)  -->
<svg version="1.1" id="Layer_1" xmlns="http://www.w3.org/2000/svg" xmlns:xlink="http://www.w3.org/1999/xlink" x="0px" y="0px"
	 viewBox="0 0 20 16" style="enable-background:new 0 0 20 16; fill:#444444" xml:space="preserve">
<style type="text/css">
	.st0{fill:#E6E6E6;}
</style>
<a class="dark" xlink:href="https://github.com/clintonowen/kando-mvp-client" target="_blank">
<rect class="st0" width="20" height="16"/>
<path d="M7.8,11c0,0.9-0.5,2.3-1.5,2.3S4.7,11.9,4.7,11s0.5-2.3,1.5-2.3S7.8,10.2,7.8,11z M20,8.9c0,1.3-0.1,2.7-0.7,4
	c-1.6,3.2-5.9,3.1-9,3.1c-3.2,0-7.8,0.1-9.4-3.1C0.2,11.7,0,10.3,0,8.9c0-1.7,0.6-3.4,1.7-4.7c-0.2-0.7-0.3-1.4-0.3-2
	C1.4,1.3,1.6,0.8,2,0c1.9,0,3.1,0.4,4.5,1.5C7.8,1.2,9,1.1,10.2,1.1c1.1,0,2.3,0.1,3.4,0.4C15,0.4,16.2,0,18.1,0
	c0.4,0.8,0.6,1.3,0.6,2.2c0,0.7-0.1,1.4-0.3,2C19.5,5.5,20,7.2,20,8.9L20,8.9z M17.3,11c0-1.8-1.1-3.4-3.1-3.4
	c-0.8,0-1.5,0.1-2.3,0.3C11.3,7.9,10.7,8,10,8C9.4,8,8.7,8,8.1,7.9C7.4,7.7,6.6,7.6,5.8,7.6c-2,0-3.1,1.6-3.1,3.4
	c0,3.7,3.4,4.2,6.3,4.2h2C14,15.3,17.3,14.7,17.3,11z M13.9,8.7c-1.1,0-1.5,1.4-1.5,2.3s0.5,2.3,1.5,2.3s1.5-1.4,1.5-2.3
	S15,8.7,13.9,8.7z"/>
</a>
</svg>
