<?xml version="1.0" encoding="utf-8"?>
<?xml-stylesheet href="../styles/svg.css" type="text/css"?>
<!-- Generator: Adobe Illustrator 21.1.0, SVG Export Plug-In . SVG Version: 6.00 Build 0)  -->
<svg version="1.1" id="Layer_1" xmlns="http://www.w3.org/2000/svg" xmlns:xlink="http://www.w3.org/1999/xlink" x="0px" y="0px"
	 viewBox="0 0 20 16" style="enable-background:new 0 0 20 16;" xml:space="preserve">
<style type="text/css">
	.st0{fill:#E6E6E6;}
</style>
<a class="dark" xlink:href="https://kando-mvp.herokuapp.com/" target="_blank">
<rect class="st0" width="20" height="16"/>
<path d="M19.5,13h-7.6c0,0.6-0.5,1-1,1H9c-0.6,0-1-0.5-1-1H0.5C0.2,13,0,13.2,0,13.5V14c0,1.1,0.9,2,2,2h16c1.1,0,2-0.9,2-2v-0.5
	C20,13.2,19.8,13,19.5,13z M18,1.5C18,0.7,17.3,0,16.5,0h-13C2.7,0,2,0.7,2,1.5V12h16V1.5z M16,10H4V2h12V10z"/>
</a>
</svg>
