<?xml version="1.0" encoding="utf-8"?>
<?xml-stylesheet href="../styles/svg.css" type="text/css"?>
<!-- Generator: Adobe Illustrator 21.1.0, SVG Export Plug-In . SVG Version: 6.00 Build 0)  -->
<svg version="1.1" id="Layer_1" xmlns="http://www.w3.org/2000/svg" xmlns:xlink="http://www.w3.org/1999/xlink" x="0px" y="0px"
	 viewBox="0 0 40 40" style="enable-background:new 0 0 40 40; fill:#E6E6E6" xml:space="preserve">
<style type="text/css">
	.st0{fill:#363B4E;}
</style>
<a class="light" xlink:href="https://www.linkedin.com/in/clinton-owen/" target="_blank">
<rect class="st0" width="40" height="40"/>
<path d="M37.1,0H2.8C1.3,0,0,1.3,0,2.9v34.2C0,38.7,1.3,40,2.8,40h34.3c1.6,0,2.9-1.3,2.9-2.9V2.9C40,1.3,38.7,0,37.1,0z M12.1,34.3
	H6.2V15.2h5.9L12.1,34.3L12.1,34.3z M9.1,12.6c-1.9,0-3.4-1.5-3.4-3.4s1.5-3.4,3.4-3.4c1.9,0,3.4,1.5,3.4,3.4
	C12.6,11.1,11,12.6,9.1,12.6z M34.3,34.3h-5.9V25c0-2.2,0-5.1-3.1-5.1c-3.1,0-3.6,2.4-3.6,4.9v9.4h-5.9V15.2h5.7v2.6h0.1
	c0.8-1.5,2.7-3.1,5.6-3.1c6,0,7.1,4,7.1,9.1V34.3z"/>
</a>
</svg>
