<?xml version="1.0" encoding="utf-8"?>
<?xml-stylesheet href="/styles/svg.css" type="text/css"?>
<!-- Generator: Adobe Illustrator 21.1.0, SVG Export Plug-In . SVG Version: 6.00 Build 0)  -->
<svg version="1.1" id="Layer_1" xmlns="http://www.w3.org/2000/svg" xmlns:xlink="http://www.w3.org/1999/xlink" x="0px" y="0px"
	 viewBox="0 0 40 40" style="enable-background:new 0 0 40 40; fill:#E6E6E6" xml:space="preserve">
<style type="text/css">
	.st0{fill:#363B4E;}
</style>
<a class="light" xlink:href="tel:847-363-7952">
<rect class="st0" width="40" height="40"/>
<path d="M35.7,0H4.3C1.9,0,0,1.9,0,4.3v31.4C0,38.1,1.9,40,4.3,40h31.4c2.4,0,4.3-1.9,4.3-4.3V4.3C40,1.9,38.1,0,35.7,0z M8.4,34.3
	c-0.6,0-1.2-0.4-1.3-1l-1.3-5.8c-0.1-0.6,0.2-1.3,0.8-1.5l6.3-2.7c0.5-0.2,1.2-0.1,1.6,0.4l2.8,3.4c4.4-2.1,7.9-5.6,9.9-9.9
	l-3.4-2.8c-0.5-0.4-0.6-1-0.4-1.6l2.7-6.3c0.3-0.6,0.9-0.9,1.5-0.8l5.8,1.3c0.6,0.1,1,0.7,1,1.3C34.3,22.7,22.7,34.3,8.4,34.3z"/>
</a>
</svg>
