<?xml version="1.0" encoding="utf-8"?>
<?xml-stylesheet href="../styles/svg.css" type="text/css"?>
<!-- Generator: Adobe Illustrator 21.1.0, SVG Export Plug-In . SVG Version: 6.00 Build 0)  -->
<svg version="1.1" id="Layer_1" xmlns="http://www.w3.org/2000/svg" xmlns:xlink="http://www.w3.org/1999/xlink" x="0px" y="0px"
	 viewBox="0 0 40 40" style="enable-background:new 0 0 40 40; fill:#E6E6E6" xml:space="preserve">
<style type="text/css">
	.st0{fill:#363B4E;}
</style>
<a class="light" xlink:href= "https://twitter.com/CoderClint" target="_blank">
<rect class="st0" width="40" height="40"/>
<path d="M35.7,0H4.3C1.9,0,0,1.9,0,4.3v31.4C0,38.1,1.9,40,4.3,40h31.4c2.4,0,4.3-1.9,4.3-4.3V4.3C40,1.9,38.1,0,35.7,0z M31.3,14.2
	c0,0.3,0,0.5,0,0.8c0,7.7-5.9,16.7-16.7,16.7c-3.3,0-6.4-1-9-2.6C6.2,29,6.6,29,7.1,29c2.7,0,5.3-0.9,7.3-2.5
	c-2.6-0.1-4.7-1.7-5.5-4.1c0.9,0.1,1.7,0.1,2.6-0.1c-2.7-0.5-4.7-2.9-4.7-5.8v-0.1c0.8,0.4,1.7,0.7,2.6,0.7
	c-1.6-1.1-2.6-2.9-2.6-4.9c0-1.1,0.3-2.1,0.8-3c2.9,3.6,7.2,5.9,12.1,6.1c-0.8-4,2.1-7.2,5.7-7.2c1.7,0,3.2,0.7,4.3,1.8
	c1.3-0.3,2.6-0.7,3.7-1.4c-0.4,1.4-1.4,2.5-2.6,3.2c1.2-0.1,2.3-0.5,3.4-0.9C33.5,12.3,32.5,13.3,31.3,14.2z"/>
</a>
</svg>
